<svg width="61" height="30" viewBox="0 0 61 30" fill="none" xmlns="http://www.w3.org/2000/svg">
    <path fill-rule="evenodd" clip-rule="evenodd" d="M45.2528 17.2366C45.9725 17.2365 46.676 17.4543 47.2744 17.8625C47.8728 18.2707 48.3392 18.8509 48.6146 19.5297C48.8901 20.2086 48.9622 20.9555 48.8218 21.6762C48.6815 22.3969 48.335 23.0589 47.8261 23.5785C47.3173 24.0981 46.6689 24.452 45.9631 24.5953C45.2573 24.7387 44.5257 24.6652 43.8608 24.384C43.1959 24.1028 42.6277 23.6266 42.2278 23.0157C41.828 22.4047 41.6146 21.6865 41.6146 20.9517C41.6146 19.9664 41.9979 19.0215 42.6802 18.3248C43.3625 17.6281 44.2879 17.2367 45.2528 17.2366ZM41.8703 10.6496L41.6276 13.8884C42.3403 13.8498 43.0285 13.8169 43.6677 13.7947C43.7583 13.7981 43.8481 13.7766 43.9278 13.7326C44.0076 13.6886 44.0743 13.6236 44.1212 13.5444C44.2964 13.2474 44.4434 12.934 44.5604 12.6086C44.6196 12.4298 44.607 12.3482 44.4571 12.1387C44.2564 11.8587 42.921 11.1471 41.8703 10.6493V10.6496ZM41.0868 13.9181L41.3852 10.4258C41.1531 10.3169 40.9151 10.2214 40.6725 10.1397C39.8579 9.88705 39.0135 9.74858 38.1624 9.72811L35.3809 9.69235C35.3061 9.68914 35.2318 9.70449 35.1641 9.73706C35.0965 9.76963 35.0376 9.81846 34.9924 9.87937C34.7683 10.4716 34.7161 11.2779 34.4247 13.7139C34.3449 14.3808 34.3876 14.2002 35.1119 14.1909C36.8959 14.1691 39.0642 14.0293 41.0868 13.9159V13.9181ZM50.8884 22.5955C51.6267 22.5376 52.4644 22.4668 53.1239 22.3509C53.5114 22.3176 53.8857 22.1915 54.2166 21.983C54.7514 21.4759 54.6901 19.8946 54.6807 19.0839C54.6786 18.8862 54.1904 18.8858 54.1774 18.6802C54.1073 17.4304 54.0205 16.0469 53.8867 14.7627C53.7263 13.2211 50.6296 13.1643 48.7334 12.5513C47.3843 12.1151 46.273 11.1803 44.5401 10.3979C42.6317 9.53608 40.966 8.74579 38.9595 8.74579C35.6989 8.74579 30.8524 8.34885 27.8169 9.33403C24.91 10.277 22.2616 11.9803 19.5045 13.3109C15.993 13.7108 12.5114 14.3486 9.08272 15.2201C8.67445 15.2909 8.2886 15.4601 7.95719 15.7137C7.62578 15.9672 7.35836 16.2978 7.17712 16.678C6.90774 17.2682 6.67164 17.8737 6.47 18.4914C6.20207 18.5136 6.19191 18.4442 6.10716 18.604C6.0481 18.8207 6.02816 19.0466 6.04832 19.2706C5.98745 19.9405 6.02797 20.6159 6.16845 21.2731C6.22742 21.6597 6.4197 22.012 6.71061 22.2666C6.91422 22.4319 7.1632 22.5284 7.42298 22.5426L8.66104 22.5837C9.40003 22.445 9.26063 22.3481 9.2137 21.3883C9.2067 21.2453 9.20332 21.0997 9.20355 20.9517C9.20355 19.6707 9.70191 18.4423 10.589 17.5365C11.4761 16.6308 12.6792 16.122 13.9338 16.122C15.1883 16.122 16.3914 16.6308 17.2785 17.5365C18.1656 18.4423 18.664 19.6707 18.664 20.9517C18.664 21.2227 18.6587 21.4881 18.6409 21.748C18.5298 23.3662 18.3824 23.0869 19.8194 23.1602L39.6659 23.138C40.7222 22.9893 40.6623 23.1248 40.5517 21.7698C40.5299 21.5038 40.5226 21.2302 40.5226 20.9517C40.5333 19.6779 41.0364 18.46 41.9224 17.5632C42.8083 16.6663 44.0054 16.1632 45.253 16.1632C46.5006 16.1632 47.6976 16.6663 48.5836 17.5632C49.4695 18.46 49.9726 19.6779 49.9834 20.9517C49.9834 21.1805 49.9771 21.408 49.9599 21.6311C49.8752 22.7397 50.1792 22.6492 50.8884 22.5938V22.5955ZM24.6053 14.5736C24.6924 14.301 24.7497 14.0194 24.7762 13.7339C24.814 13.0902 23.6604 13.0416 22.9449 13.0902C24.5692 11.8994 26.3495 10.9475 28.2333 10.2627C29.4191 9.94733 30.6356 9.76849 31.8603 9.72954L33.428 9.69378C33.7109 9.69056 33.7484 9.82502 33.6654 10.0514C33.3852 10.8159 33.2746 12.4673 33.1051 13.5762C33.0238 14.1126 32.8998 14.2381 32.364 14.2428C30.2482 14.2607 24.5759 14.6755 24.6018 14.5721L24.6053 14.5736ZM13.9345 17.2366C14.6541 17.2366 15.3576 17.4545 15.9559 17.8627C16.5543 18.2709 17.0207 18.8511 17.296 19.53C17.5714 20.2088 17.6435 20.9558 17.5031 21.6764C17.3627 22.3971 17.0162 23.0591 16.5073 23.5786C15.9984 24.0982 15.3501 24.452 14.6443 24.5954C13.9385 24.7387 13.2069 24.6651 12.5421 24.384C11.8772 24.1028 11.3089 23.6266 10.9091 23.0157C10.5093 22.4047 10.2959 21.6864 10.2959 20.9517C10.2959 19.9664 10.6793 19.0214 11.3616 18.3247C12.044 17.628 12.9695 17.2366 13.9345 17.2366Z" fill="white"/>
</svg>