<svg width="139" height="42" viewBox="0 0 139 42" fill="none" xmlns="http://www.w3.org/2000/svg">
    <path fill-rule="evenodd" clip-rule="evenodd"
          d="M127.657 35.985C129.757 35.808 132.121 35.652 133.992 35.368C135.101 35.2892 136.174 34.9356 137.112 34.339C138.639 32.921 138.464 28.499 138.438 26.232C138.431 25.68 137.038 25.678 137 25.103C136.8 21.603 136.7 20.396 136.32 16.803C136.163 15.318 134.929 14.103 132.981 13.494C127.348 11.737 113.861 10.101 107.481 9.83599L105.457 9.75999L103.472 9.32299C102.151 9.52999 102.272 9.28599 101.978 10.681C101.724 11.896 101.093 13.4 99.504 13.475C93.971 13.73 88.439 13.79 83.139 13.975C82.58 13.994 81.881 13.661 81.892 13.023L81.935 10.613C81.9388 10.548 81.9296 10.483 81.9081 10.4216C81.8866 10.3602 81.853 10.3037 81.8095 10.2553C81.766 10.2069 81.7133 10.1677 81.6545 10.1398C81.5957 10.112 81.532 10.096 81.467 10.093L79.625 9.92799C79.4859 9.93196 79.3532 9.98713 79.2523 10.0829C79.1513 10.1787 79.0893 10.3083 79.078 10.447L78.695 12.547C78.437 13.973 78.195 14.38 76.764 14.44L53.847 15.415C53.571 15.427 54.272 14.134 54.336 13.067C54.444 11.267 49.355 10.943 47.312 11.075C50.172 8.78399 56.663 5.23999 62.355 2.46699C63.017 2.14399 63.411 2.12898 62.979 1.44898L62.55 0.772989C62.233 0.272989 61.83 0.317984 61.317 0.558984C53.7828 3.95317 46.4284 7.73317 39.283 11.884C29.2568 13.0034 19.316 14.787 9.52601 17.223C6.40501 17.997 4.895 17.644 3.936 19.5C3.16705 21.1507 2.49263 22.8437 1.91601 24.571C1.15201 24.634 1.12301 24.865 0.881007 25.312C0.694283 26.2034 0.63435 27.1168 0.702998 28.025C0.725998 28.983 0.795001 30.425 0.878001 31.351C1.05 33.3 1.378 34.391 2.367 35.129C3.04207 35.5737 3.82883 35.819 4.637 35.837L7.66101 35.937C9.64101 35.658 9.99601 35.865 9.78901 33.272C9.74201 32.682 9.721 32.072 9.721 31.452C9.70566 29.6685 10.0437 27.8997 10.7156 26.2475C11.3875 24.5954 12.3799 23.0926 13.6356 21.8261C14.8913 20.5595 16.3855 19.5542 18.0318 18.8681C19.6781 18.182 21.444 17.8288 23.2275 17.8288C25.011 17.8288 26.7769 18.182 28.4232 18.8681C30.0696 19.5542 31.5637 20.5595 32.8194 21.8261C34.0751 23.0926 35.0676 24.5954 35.7394 26.2475C36.4113 27.8997 36.7494 29.6685 36.734 31.452C36.7429 32.4755 36.6761 33.4983 36.534 34.512C36.001 38.101 36.534 37.497 39.334 37.497H96.317C98.185 37.114 98.849 37.12 98.543 34.516C98.4342 33.4984 98.3848 32.4753 98.395 31.452C98.395 27.87 99.8179 24.4347 102.351 21.9018C104.884 19.3689 108.319 17.946 111.901 17.946C115.483 17.946 118.918 19.3689 121.451 21.9018C123.984 24.4347 125.407 27.87 125.407 31.452C125.407 31.959 125.418 32.46 125.422 32.952C125.442 35.52 125.564 36.16 127.662 35.981L127.657 35.985ZM111.896 21.065C113.951 21.0648 115.96 21.674 117.669 22.8155C119.377 23.9571 120.709 25.5797 121.496 27.4782C122.282 29.3767 122.488 31.4658 122.087 33.4814C121.687 35.4969 120.697 37.3483 119.244 38.8015C117.791 40.2546 115.94 41.2443 113.924 41.6453C111.909 42.0463 109.82 41.8406 107.921 41.0542C106.023 40.2678 104.4 38.9361 103.258 37.2275C102.116 35.5188 101.507 33.51 101.507 31.455C101.507 30.0906 101.775 28.7395 102.298 27.479C102.82 26.2184 103.585 25.073 104.55 24.1082C105.514 23.1434 106.66 22.3781 107.92 21.8559C109.181 21.3337 110.532 21.065 111.896 21.065ZM23.228 21.065C25.283 21.0648 27.2919 21.674 29.0007 22.8155C30.7094 23.9571 32.0413 25.5797 32.8278 27.4782C33.6144 29.3767 33.8203 31.4658 33.4195 33.4814C33.0187 35.4969 32.0292 37.3483 30.5762 38.8015C29.1232 40.2546 27.2718 41.2443 25.2564 41.6453C23.2409 42.0463 21.1517 41.8406 19.2532 41.0542C17.3546 40.2678 15.7318 38.9361 14.5901 37.2275C13.4484 35.5188 12.839 33.51 12.839 31.455C12.839 28.6996 13.9335 26.057 15.8818 24.1085C17.8301 22.16 20.4726 21.0652 23.228 21.065Z"
          fill="#FFFFFF"/>
</svg>
