<svg width="60" height="30" viewBox="0 0 60 30" fill="none" xmlns="http://www.w3.org/2000/svg">
<path fill-rule="evenodd" clip-rule="evenodd" d="M50.5053 22.5508C50.8949 22.5171 51.2713 22.3909 51.6041 22.1823C52.1416 21.6745 51.9789 20.0906 51.9704 19.2792C51.9683 19.0815 51.4774 19.0801 51.464 18.8749C51.3935 17.6237 50.8621 15.3244 50.7279 14.0388C50.696 13.7063 50.5837 13.3869 50.4012 13.109C50.2187 12.8311 49.9715 12.6034 49.6816 12.446C48.7332 11.8501 46.019 10.2258 44.9878 9.78536C44.3074 9.49531 44.4733 9.42548 43.7429 9.31984C40.1154 8.79058 33.5163 8.16534 29.9618 9.31375C27.0388 10.2581 24.4939 11.6274 21.8544 13.2961C17.1852 14.1147 13.375 14.8098 11.107 15.43C10.698 15.5117 10.3133 15.6892 9.98353 15.9485C9.65377 16.2078 9.38801 16.5417 9.20736 16.9236C8.83933 17.6481 8.66466 18.0724 8.49597 18.4839C8.09202 18.5197 7.99446 18.8968 8.00291 19.4088C8.01453 20.2128 7.94093 20.7861 8.16104 21.5825C8.24522 21.8626 8.41743 22.1069 8.65127 22.278C8.8851 22.4491 9.16766 22.5375 9.45564 22.5296L10.5925 22.5654C11.1443 22.458 11.3137 22.4895 11.2665 21.7393C11.2503 21.4818 11.2465 21.2176 11.2465 20.9458C11.2465 19.6631 11.7476 18.4329 12.6396 17.5259C13.5316 16.6189 14.7415 16.1093 16.003 16.1093C17.2645 16.1093 18.4743 16.6189 19.3663 17.5259C20.2583 18.4329 20.7595 19.6631 20.7595 20.9458C20.7595 21.3193 20.7595 21.6827 20.7348 22.0319C20.6527 23.2225 20.2882 23.099 21.4131 23.1581L39.1941 23.1366C40.0115 23.0353 40.2306 23.1366 40.1172 22.0068C40.0858 21.6543 40.0718 21.3004 40.0753 20.9465C40.0861 19.6709 40.592 18.4514 41.4829 17.5533C42.3737 16.6552 43.5775 16.1513 44.832 16.1513C46.0865 16.1513 47.2902 16.6552 48.1811 17.5533C49.0719 18.4514 49.5778 19.6709 49.5886 20.9465C49.5886 21.1868 49.5886 21.4213 49.5805 21.6491C49.5502 22.5665 49.3513 22.752 50.5064 22.5508H50.5053ZM36.6063 13.7011C36.8994 11.2618 36.9353 10.5553 37.1607 9.96262C37.2021 9.88588 37.2604 9.81989 37.331 9.76978C37.4016 9.71966 37.4826 9.68676 37.5678 9.67364C39.2934 9.75779 39.8834 9.72807 41.5555 10.1223C42.1496 10.2914 43.3657 11.698 43.6685 12.1216C43.7862 12.2849 44.6596 13.3165 44.5191 13.5293C44.472 13.6085 44.4049 13.6736 44.3248 13.7177C44.2446 13.7617 44.1544 13.7832 44.0633 13.7799C41.4629 13.868 39.8929 14.1473 37.2966 14.1792C36.5687 14.1882 36.5261 14.3686 36.6063 13.7011ZM26.7324 14.5606C26.82 14.2876 26.8776 14.0056 26.9042 13.7198C26.9423 13.0752 25.5491 13.0265 24.8296 13.0752C26.5466 11.8817 28.4143 10.9294 30.382 10.2441C31.9104 9.72377 33.9678 9.7116 35.6058 9.67579C35.8904 9.67292 35.8805 9.79432 35.8446 10.0339C35.7301 10.7995 35.4512 12.4532 35.2811 13.5636C35.1998 14.1008 35.0751 14.2268 34.5362 14.2311C32.4087 14.2494 26.7049 14.6644 26.731 14.5609L26.7324 14.5606ZM44.8297 17.2262C45.5533 17.2262 46.2607 17.4444 46.8624 17.8532C47.4641 18.262 47.933 18.843 48.2099 19.5228C48.4868 20.2026 48.5593 20.9506 48.4181 21.6723C48.277 22.3939 47.9285 23.0568 47.4168 23.5771C46.9051 24.0974 46.2532 24.4517 45.5435 24.5953C44.8337 24.7388 44.0981 24.6651 43.4295 24.3836C42.761 24.102 42.1896 23.6251 41.7875 23.0134C41.3855 22.4016 41.1709 21.6823 41.1709 20.9465C41.1709 20.4579 41.2655 19.9741 41.4493 19.5228C41.6332 19.0714 41.9027 18.6612 42.2424 18.3158C42.5822 17.9703 42.9855 17.6963 43.4295 17.5093C43.8734 17.3224 44.3492 17.2262 44.8297 17.2262ZM16.0001 17.2262C16.7238 17.2262 17.4312 17.4444 18.0328 17.8532C18.6345 18.262 19.1035 18.843 19.3804 19.5228C19.6573 20.2026 19.7298 20.9506 19.5886 21.6723C19.4474 22.3939 19.099 23.0568 18.5873 23.5771C18.0756 24.0974 17.4237 24.4517 16.7139 24.5953C16.0042 24.7388 15.2685 24.6651 14.6 24.3836C13.9314 24.102 13.36 23.6251 12.958 23.0134C12.556 22.4016 12.3414 21.6823 12.3414 20.9465C12.3414 19.9598 12.7269 19.0136 13.413 18.3159C14.0992 17.6182 15.0298 17.2262 16.0001 17.2262Z" fill="white"/>
</svg>
