<svg width="61" height="30" viewBox="0 0 61 30" fill="none" xmlns="http://www.w3.org/2000/svg">
    <path fill-rule="evenodd" clip-rule="evenodd" d="M14.4561 16.2397C15.282 16.2397 16.0894 16.4846 16.7761 16.9435C17.4629 17.4023 17.9981 18.0545 18.3142 18.8176C18.6303 19.5807 18.713 20.4203 18.5519 21.2304C18.3907 22.0405 17.993 22.7846 17.409 23.3686C16.8249 23.9526 16.0808 24.3503 15.2708 24.5115C14.4607 24.6726 13.621 24.5899 12.858 24.2738C12.0949 23.9578 11.4427 23.4225 10.9838 22.7358C10.525 22.049 10.28 21.2416 10.28 20.4157C10.28 19.8673 10.388 19.3242 10.5978 18.8175C10.8077 18.3109 11.1153 17.8505 11.5031 17.4627C11.8908 17.0749 12.3512 16.7673 12.8579 16.5574C13.3646 16.3476 13.9076 16.2396 14.4561 16.2397ZM51.2585 10.4837L57.9358 8.67499C58.1259 8.62314 58.2308 8.82571 58.183 9.00939L57.1914 12.7927C57.1644 12.8854 57.1094 12.9674 57.0338 13.0274C56.9581 13.0874 56.8657 13.1224 56.7694 13.1275H50.566C50.525 13.1294 50.4841 13.1211 50.447 13.1033C50.4099 13.0856 50.3777 13.0591 50.3534 13.026C50.329 12.9929 50.3131 12.9543 50.3071 12.9136C50.3012 12.8729 50.3054 12.8314 50.3193 12.7927L50.8361 10.8197C50.871 10.7317 50.9284 10.6545 51.0026 10.5958C51.0767 10.537 51.165 10.4988 51.2585 10.4849V10.4837ZM20.3761 14.1082C21.2535 13.9234 22.3688 13.6352 22.071 14.9611C22.0474 15.0629 22.0143 15.1622 21.9721 15.2578C25.2735 15.6729 28.8953 15.4844 32.2434 15.2943C33.2687 15.2361 33.0806 15.3848 33.4894 14.4165C33.7988 13.681 34.1372 12.7964 34.3607 12.2558C34.5352 11.8349 34.8523 11.2976 34.1159 11.1814C33.2916 11.0516 30.1746 11.185 29.3483 11.2722C27.079 11.5134 20.8676 12.6083 19.0991 13.5632C18.9335 13.6525 20.1208 14.1613 20.3785 14.1074L20.3761 14.1082ZM55.2951 23.8417C55.8815 23.7637 56.8248 24.0025 57.0865 23.6609C57.5913 23.0001 58.1769 21.8522 58.0178 21.2376C57.9113 20.8257 57.0885 20.7991 57.1034 20.7593C57.5334 19.5881 57.5857 17.6243 57.7698 16.2791C57.9249 15.142 58.0913 14.9901 56.8453 14.7481C49.4901 13.3197 46.6183 13.771 38.9049 11.3755C31.0673 8.94107 20.44 11.5122 11.688 15.0504C8.12773 16.4901 5.30498 18.0897 2.44004 19.5781C2.37117 19.6236 2.31314 19.6837 2.27009 19.7541C2.22703 19.8245 2.20001 19.9036 2.19092 19.9856C2.18183 20.0677 2.1909 20.1507 2.21749 20.2288C2.24408 20.307 2.28754 20.3783 2.34479 20.4378C2.86017 21.2458 3.42981 22.018 4.04976 22.7489C4.65909 23.4016 4.98948 23.9852 5.78891 24.0101C6.56303 24.0346 7.51238 23.976 8.40144 24.0053C8.97017 24.0238 9.34115 23.9422 9.27764 23.349C9.22137 22.8204 9.0831 21.8035 9.03326 21.31C9.00489 21.0127 8.99149 20.7143 8.99307 20.4157C8.99307 19.7028 9.13348 18.9969 9.40629 18.3383C9.67909 17.6797 10.0789 17.0813 10.583 16.5772C11.0871 16.0731 11.6855 15.6733 12.3441 15.4005C13.0027 15.1277 13.7086 14.9873 14.4215 14.9873C15.1344 14.9873 15.8403 15.1277 16.4989 15.4005C17.1575 15.6733 17.7559 16.0731 18.26 16.5772C18.764 17.0813 19.1639 17.6797 19.4367 18.3383C19.7095 18.9969 19.8499 19.7028 19.8499 20.4157C19.8499 20.7059 19.8443 20.9908 19.8262 21.2686C19.7137 22.9969 18.8387 23.99 20.604 23.988L42.9037 23.9627C44.0086 23.9627 43.9358 22.769 43.8032 21.4832C43.7694 21.1284 43.7537 20.7721 43.7562 20.4157C43.7685 18.984 44.3459 17.6152 45.3626 16.6072C46.3793 15.5991 47.7531 15.0336 49.1848 15.0336C50.6165 15.0336 51.9903 15.5991 53.007 16.6072C54.0237 17.6152 54.6011 18.984 54.6134 20.4157C54.6157 20.74 54.6012 21.0643 54.57 21.3871C54.4623 22.4261 54.4531 23.9539 55.2987 23.8417H55.2951ZM49.257 16.2397C50.0829 16.2396 50.8903 16.4844 51.5771 16.9433C52.2639 17.4021 52.7992 18.0543 53.1154 18.8173C53.4315 19.5804 53.5143 20.4201 53.3532 21.2301C53.1921 22.0402 52.7944 22.7844 52.2104 23.3684C51.6264 23.9525 50.8823 24.3503 50.0722 24.5114C49.2621 24.6726 48.4224 24.5899 47.6594 24.2739C46.8963 23.9578 46.244 23.4226 45.7852 22.7358C45.3263 22.0491 45.0813 21.2416 45.0813 20.4157C45.0813 19.8673 45.1892 19.3243 45.3991 18.8176C45.6089 18.311 45.9165 17.8506 46.3042 17.4628C46.6919 17.075 47.1523 16.7674 47.6589 16.5576C48.1655 16.3477 48.7086 16.2397 49.257 16.2397ZM37.4765 14.7123L35.4648 14.9937C35.0629 15.05 35.1252 15.093 35.2594 14.6995C35.3602 14.4047 35.4611 14.1151 35.5621 13.8305C35.8233 13.093 35.583 13.181 36.2566 13.3603C36.5584 13.4406 38.9339 14.5086 37.4765 14.7119V14.7123Z" fill="white"/>
</svg>
