<svg width="61" height="30" viewBox="0 0 61 30" fill="none" xmlns="http://www.w3.org/2000/svg">
<path fill-rule="evenodd" clip-rule="evenodd" d="M13.0126 16.0352C13.8386 16.0352 14.646 16.28 15.3328 16.7388C16.0196 17.1977 16.5549 17.8498 16.8711 18.6129C17.1872 19.376 17.2699 20.2156 17.1088 21.0257C16.9478 21.8358 16.5501 22.58 15.9661 23.164C15.382 23.7481 14.638 24.1459 13.8279 24.307C13.0178 24.4682 12.1781 24.3855 11.415 24.0695C10.6519 23.7534 9.9997 23.2181 9.54081 22.5314C9.08193 21.8446 8.837 21.0372 8.837 20.2113C8.837 19.1038 9.27691 18.0417 10.06 17.2585C10.843 16.4754 11.9051 16.0353 13.0126 16.0352ZM54.8163 23.1851C56.313 22.9862 57.9686 22.0215 58.4441 20.7249C58.7974 19.7631 58.0912 19.0802 57.594 18.2165C57.4702 18.0007 57.3875 17.7639 57.35 17.518C57.0385 15.6096 60.0313 14.5992 56.9557 14.2093C54.0263 13.8832 51.1193 13.3809 48.2504 12.7049C47.4811 12.5196 46.672 12.2704 45.8408 11.9983C43.281 11.1595 40.5153 10.1024 38.0836 10.0192C34.5419 9.89862 30.9145 10.3379 27.8606 11.5678C25.984 12.3238 23.8156 13.3154 21.1886 14.5509C20.5054 14.2696 15.054 13.8733 12.5576 14.1185C9.5247 14.4163 5.2128 15.4593 2.96884 17.7085C2.20518 18.4749 2.32817 18.9786 2.85992 19.9524C3.70397 21.4954 5.32858 23.2293 7.13604 23.2884C8.20919 23.3234 7.84424 22.7892 7.73893 21.7386C7.70959 21.448 7.54641 20.5159 7.54641 20.2113C7.54024 19.4944 7.6761 18.7835 7.94615 18.1194C8.2162 17.4554 8.61509 16.8514 9.1198 16.3423C9.62451 15.8333 10.225 15.4292 10.8867 15.1534C11.5484 14.8777 12.2582 14.7357 12.975 14.7357C13.6919 14.7357 14.4016 14.8777 15.0633 15.1534C15.725 15.4292 16.3256 15.8333 16.8303 16.3423C17.335 16.8514 17.7339 17.4554 18.0039 18.1194C18.274 18.7835 18.4098 19.4944 18.4037 20.2113C18.4037 20.5015 18.398 20.7864 18.38 21.0642C18.267 22.7924 17.4824 23.3029 19.2477 23.3013L42.2709 23.276C43.3758 23.276 43.213 22.5646 43.0804 21.2788C43.0463 20.924 43.0305 20.5677 43.033 20.2113C43.0453 18.7796 43.6227 17.4108 44.6394 16.4027C45.6561 15.3947 47.0299 14.8291 48.4616 14.8291C49.8933 14.8291 51.2671 15.3947 52.2838 16.4027C53.3005 17.4108 53.8779 18.7796 53.8902 20.2113C53.8902 20.5497 53.879 21.4171 53.8468 21.7253C53.7391 22.7639 53.971 23.2973 54.8167 23.1851H54.8163ZM38.4241 14.3234C38.6372 13.2714 39.0055 12.2568 39.5169 11.313C39.6009 11.2037 39.7184 11.1248 39.8515 11.0885C39.9845 11.0522 40.1257 11.0605 40.2536 11.112C41.0408 11.2751 41.8071 11.5262 42.5382 11.8604C43.0306 12.1213 43.213 12.2197 42.7934 12.7531C42.0539 13.694 40.2074 14.5799 39.1222 14.9376C38.3734 15.184 38.2344 15.0807 38.4241 14.3246V14.3234ZM26.9627 15.1819C27.0462 14.9345 27.101 14.6783 27.1259 14.4183C27.1568 13.825 26.2356 13.9617 25.4639 14.0598C25.0949 14.1068 25.1617 13.9934 25.4205 13.8367C26.5206 13.1835 27.6775 12.6312 28.8771 12.1864C30.638 11.5235 32.4834 11.1115 34.359 10.9625C35.3827 10.8709 36.4128 10.8307 37.4301 10.8017C37.9197 10.7869 38.2741 10.8733 38.1278 11.2595C37.8602 11.9569 37.5165 12.9416 37.1037 13.7917C36.8296 14.3572 36.5262 15.1735 35.8533 15.276C33.7404 15.5975 28.1898 15.8074 27.111 15.4806C26.896 15.4155 26.9072 15.3721 26.9615 15.1807L26.9627 15.1819ZM48.5374 16.0352C49.3633 16.0352 50.1708 16.28 50.8576 16.7388C51.5444 17.1977 52.0797 17.8498 52.3958 18.6129C52.7119 19.376 52.7947 20.2156 52.6336 21.0257C52.4725 21.8358 52.0748 22.58 51.4908 23.164C50.9068 23.7481 50.1627 24.1459 49.3526 24.307C48.5425 24.4682 47.7029 24.3855 46.9398 24.0695C46.1767 23.7534 45.5244 23.2181 45.0656 22.5314C44.6067 21.8446 44.3617 21.0372 44.3617 20.2113C44.3617 19.1038 44.8017 18.0417 45.5847 17.2585C46.3678 16.4754 47.4299 16.0353 48.5374 16.0352Z" fill="white"/>
</svg>
