<svg width="61" height="30" viewBox="0 0 61 30" fill="none" xmlns="http://www.w3.org/2000/svg">
<path fill-rule="evenodd" clip-rule="evenodd" d="M25.323 5.7658C25.7735 5.07985 26.539 4.66675 27.3596 4.66675H33.3544L51.415 4.7618C52.1419 4.76563 52.7777 5.25194 52.9718 5.95249L54.725 12.281V16.748L55.2853 16.8941C55.6429 16.9874 55.8925 17.3104 55.8925 17.68V19.3757C55.8925 20.15 55.3459 20.8167 54.5867 20.9685L53.3544 21.215L50.9149 16.808C50.4792 16.0211 49.6456 15.5382 48.7462 15.5518L45.1572 15.6062C44.1605 15.6213 43.2735 16.2421 42.9179 17.1734L41.3747 21.215L21.549 21.215C21.2536 21.215 20.9815 21.0546 20.8384 20.7961L18.6186 16.7862C18.1894 16.0108 17.3731 15.5297 16.4869 15.5297H12.9688C11.9248 15.5297 10.9969 16.1948 10.6614 17.1834L9.48061 20.6637C9.3688 20.9933 9.05948 21.215 8.71149 21.215H6.92081C6.48727 21.215 6.13016 20.8745 6.10954 20.4414L5.98385 17.8018C5.96179 17.3386 6.33139 16.951 6.79511 16.951H7.16161V14.5102C7.16161 13.2483 8.12511 11.5285 9.38206 11.4166L22.2708 10.3334L25.323 5.7658ZM27.5628 5.78348C27.1597 5.78348 26.7849 5.99044 26.5701 6.33156L24.3741 9.81929C25.158 9.6715 26.076 9.61052 26.2708 10.0001C26.4268 10.312 26.4383 10.7151 26.3988 11.0627H32.4876C32.9196 11.0627 33.2697 10.7125 33.2697 10.2806V6.56558C33.2697 6.13364 32.9196 5.78348 32.4876 5.78348H27.5628ZM35.6142 5.78348C35.1823 5.78348 34.8321 6.13364 34.8321 6.56558V10.2806C34.8321 10.7125 35.1823 11.0627 35.6142 11.0627H42.1377C42.6153 11.0627 42.9813 10.6384 42.9114 10.166L42.361 6.45097C42.3042 6.06748 41.975 5.78348 41.5873 5.78348H35.6142ZM43.9197 6.6802C43.8497 6.20777 44.2158 5.78348 44.6934 5.78348H50.1887C50.7233 5.78348 51.1902 6.1448 51.3243 6.66222L52.2115 10.0843C52.3399 10.5795 51.9661 11.0627 51.4545 11.0627H45.2438C44.8561 11.0627 44.5269 10.7787 44.4701 10.3952L43.9197 6.6802Z" fill="white"/>
<path d="M14.8771 24.6667C17.1199 24.6667 18.938 22.8486 18.938 20.6058C18.938 18.363 17.1199 16.5449 14.8771 16.5449C12.6343 16.5449 10.8162 18.363 10.8162 20.6058C10.8162 22.8486 12.6343 24.6667 14.8771 24.6667Z" fill="white"/>
<path d="M47.1614 24.6667C49.4042 24.6667 51.2224 22.8486 51.2224 20.6058C51.2224 18.363 49.4042 16.5449 47.1614 16.5449C44.9187 16.5449 43.1005 18.363 43.1005 20.6058C43.1005 22.8486 44.9187 24.6667 47.1614 24.6667Z" fill="white"/>
</svg>
