<svg width="61" height="30" viewBox="0 0 61 30" fill="none" xmlns="http://www.w3.org/2000/svg">
<path fill-rule="evenodd" clip-rule="evenodd" d="M47.4593 16.6491C48.2519 16.6491 49.0267 16.8842 49.6857 17.3245C50.3447 17.7648 50.8583 18.3907 51.1617 19.1229C51.465 19.8552 51.5444 20.6609 51.3898 21.4383C51.2352 22.2156 50.8535 22.9297 50.2931 23.4902C49.7327 24.0506 49.0187 24.4323 48.2413 24.587C47.464 24.7417 46.6582 24.6624 45.926 24.3591C45.1937 24.0559 44.5678 23.5423 44.1274 22.8833C43.687 22.2243 43.4519 21.4496 43.4518 20.657C43.4518 19.5941 43.8741 18.5748 44.6256 17.8233C45.3771 17.0718 46.3965 16.6495 47.4593 16.6495V16.6491ZM53.1895 22.3967C54.099 22.3195 55.2543 22.2289 56.1284 22.0611C56.5609 22.0182 56.9752 21.8654 57.3319 21.6171C57.9209 21.0053 57.8531 19.0978 57.843 18.12C57.8407 17.882 57.303 17.8816 57.2883 17.6332C57.2431 16.0975 57.0506 14.5696 56.7136 13.0706C56.4254 11.9134 55.853 11.1277 55.4144 10.2277C55.024 9.42618 54.0848 6.83825 52.7439 5.35623C52.5766 5.13612 52.5026 4.85899 52.5379 4.58475C52.558 3.9317 52.4569 4.02118 51.8494 3.96757C51.1612 3.90701 49.9952 3.95136 48.4325 3.96062L30.0296 4.06631C29.166 4.07094 28.3493 4.14886 27.5995 4.20402C23.4786 4.50644 18.5384 7.98427 15.0201 10.0966C13.0563 10.7859 10.0383 11.9258 7.40251 12.8924C7.01455 13.0056 6.65798 13.2068 6.36063 13.4805C6.06327 13.7542 5.83317 14.0929 5.68828 14.4701C5.45435 15.0325 5.27355 15.6156 5.14824 16.2117C5.04385 16.6193 4.90844 17.0183 4.74322 17.4052C4.44851 17.4322 4.43732 17.3481 4.34398 17.541C4.27882 17.8036 4.25693 18.0752 4.27917 18.3449C4.21215 19.1524 4.25654 19.9653 4.41109 20.7608C4.57388 21.4073 4.72277 21.7209 5.00822 21.9589C5.22456 22.1554 5.50116 22.2727 5.79281 22.2918L7.05534 22.338C7.90397 22.2509 7.94679 22.4017 7.80445 21.3803C7.69695 20.6105 7.76305 19.8264 7.9979 19.0855C8.23275 18.3446 8.63041 17.6656 9.16173 17.0983C9.69305 16.531 10.3446 16.0898 11.0685 15.807C11.7925 15.5242 12.5706 15.4069 13.3457 15.4639C14.1209 15.5208 14.8735 15.7504 15.5484 16.136C16.2233 16.5215 16.8034 17.0532 17.2461 17.692C17.6888 18.3308 17.9831 19.0606 18.1072 19.8279C18.2313 20.5951 18.1821 21.3805 17.9633 22.1263C17.6721 23.1161 17.8167 22.9575 18.6283 23.0378L41.5316 23.01C42.3668 22.9294 42.7351 23.1423 42.4265 22.0071C42.3073 21.5657 42.2475 21.1103 42.2487 20.6531C42.2501 19.9305 42.4019 19.2161 42.6943 18.5552C42.9867 17.8944 43.4134 17.3016 43.9472 16.8146C44.4811 16.3276 45.1104 15.9569 45.7952 15.7262C46.4801 15.4955 47.2054 15.4098 47.9251 15.4745C48.6449 15.5392 49.3433 15.753 49.9759 16.1022C50.6086 16.4513 51.1617 16.9283 51.6001 17.5028C52.0385 18.0772 52.3526 18.7366 52.5224 19.439C52.6922 20.1414 52.7141 20.8715 52.5866 21.5828C52.4851 22.1448 52.6355 22.4426 53.1895 22.3948V22.3967ZM31.9263 10.6239C32.2473 7.68571 32.3236 6.36648 32.5701 5.65247C32.6165 5.58182 32.68 5.52409 32.7547 5.48469C32.8295 5.44529 32.913 5.42551 32.9975 5.42721L40.1106 5.37821C40.565 5.37513 40.8392 5.38902 40.8574 5.99772L40.9812 10.156C40.9966 10.6771 41.063 10.9414 40.4674 10.963C37.6195 11.069 35.528 11.1612 32.6831 11.1994C31.8858 11.2102 31.8388 11.4278 31.9263 10.6239ZM20.3464 11.6218C20.4427 11.2913 20.5058 10.9519 20.5346 10.6088C20.5763 9.83158 19.3057 9.77372 18.5176 9.8312C20.9701 7.79179 25.1793 5.46153 28.3208 5.45613L30.8123 5.45189C31.1244 5.44726 31.1379 5.59963 31.0738 5.88353C30.8578 6.84788 30.6611 9.11951 30.4767 10.4569C30.3876 11.1022 30.251 11.2553 29.6609 11.2611C27.3306 11.2824 20.3182 11.7464 20.3464 11.6218ZM42.278 10.3388C42.215 8.9818 42.1519 7.62464 42.0886 6.26735C42.0891 6.07931 42.1174 5.89238 42.1727 5.71265C42.1997 5.59693 42.4015 5.49046 42.5754 5.48776C44.1604 5.46539 43.5363 5.46964 45.1213 5.4492C45.5491 5.44341 48.2917 5.98923 49.1716 6.76071C50.3496 7.79681 51.5674 9.128 51.8463 9.67073C52.0828 10.1313 51.9782 10.4557 51.3857 10.4777C48.5494 10.5834 45.9399 10.8765 43.0993 10.9147C42.3035 10.9252 42.3162 11.1419 42.2788 10.3392L42.278 10.3388ZM12.9649 16.6491C13.7574 16.6492 14.5322 16.8843 15.1912 17.3247C15.8501 17.7651 16.3637 18.391 16.667 19.1232C16.9702 19.8555 17.0496 20.6612 16.8949 21.4385C16.7403 22.2158 16.3586 22.9299 15.7982 23.4903C15.2378 24.0507 14.5237 24.4324 13.7464 24.587C12.9691 24.7417 12.1633 24.6624 11.4311 24.3591C10.6988 24.0558 10.073 23.5422 9.63258 22.8833C9.1922 22.2243 8.95712 21.4496 8.95704 20.657C8.95699 20.1307 9.06062 19.6095 9.26201 19.1232C9.46341 18.6369 9.75862 18.1951 10.1308 17.8229C10.503 17.4507 10.9448 17.1555 11.4311 16.9541C11.9174 16.7527 12.4385 16.6491 12.9649 16.6491Z" fill="white"/>
<path d="M20.8125 10C20.5459 9.46671 18.9237 9.77783 18.1459 10V11.6667H20.8125C20.9237 11.3334 21.0792 10.5334 20.8125 10Z" fill="#D9D9D9"/>
</svg>
